<?xml version="1.0" standalone="no"?>
<!DOCTYPE svg PUBLIC "-//W3C//DTD SVG 20010904//EN"
 "http://www.w3.org/TR/2001/REC-SVG-20010904/DTD/svg10.dtd">
<svg version="1.0" xmlns="http://www.w3.org/2000/svg"
 width="128.000000pt" height="128.000000pt" viewBox="0 0 128.000000 128.000000"
 preserveAspectRatio="xMidYMid meet">
<metadata>
Created by potrace 1.16, written by Peter Selinger 2001-2019
</metadata>
<g transform="translate(0.000000,128.000000) scale(0.100000,-0.100000)"
fill="#000000" stroke="none">
<path d="M253 1240 c-66 -14 -110 -39 -152 -86 -63 -72 -66 -92 -66 -514 0
-439 1 -447 79 -526 79 -78 85 -79 536 -79 384 0 385 0 438 24 66 30 125 95
143 158 11 37 14 133 14 423 0 440 -1 447 -79 525 -79 78 -79 78 -501 81 -203
1 -389 -1 -412 -6z m676 -191 c65 -33 98 -67 130 -139 19 -41 21 -66 21 -271
l0 -226 -31 -62 c-33 -65 -67 -98 -139 -130 -41 -19 -65 -21 -270 -21 -205 0
-229 2 -270 21 -72 32 -106 65 -139 130 l-31 62 0 226 c0 205 2 230 21 271 32
72 65 106 130 139 l62 31 227 0 227 0 62 -31z"/>
<path d="M363 984 c-24 -14 -54 -44 -68 -68 -25 -42 -25 -45 -25 -276 0 -231
0 -234 25 -276 15 -26 43 -54 69 -69 42 -25 45 -25 276 -25 231 0 234 0 276
25 26 15 54 43 69 69 25 42 25 45 25 276 0 231 0 234 -25 276 -15 26 -43 54
-69 69 -42 25 -44 25 -277 25 -233 0 -234 0 -276 -26z m370 -150 c115 -58 156
-195 91 -301 -109 -176 -361 -126 -398 79 -29 161 159 297 307 222z"/>
<path d="M571 773 c-48 -25 -73 -63 -78 -120 -8 -88 46 -152 134 -160 88 -8
152 46 160 134 5 56 -17 105 -59 136 -38 28 -114 33 -157 10z"/>
</g>
</svg>
